<svg xmlns="http://www.w3.org/2000/svg" width="45" height="45" viewBox="0 0 256 256" fill="none">
  <rect width="256" height="256" rx="60" fill="#242938"/>
  <g transform="translate(48, 48) scale(0.625)">
    <path d="M128.079 0C58.525 0 1.844 52.356.022 120.108l68.892 28.473c5.839-3.987 12.876-6.326 20.463-6.326.669 0 1.332.023 1.989.059l30.615-44.354v-.623c0-27.16 22.098-49.259 49.262-49.259 27.164 0 49.262 22.098 49.262 49.259 0 27.164-22.098 49.265-49.262 49.265-.44 0-.874-.013-1.308-.028l-43.637 31.141c.024.535.042 1.074.042 1.618 0 20.356-16.556 36.912-36.912 36.912-17.781 0-32.632-12.604-36.103-29.378L3.278 161.59C19.584 214.148 68.79 252.636 127.3 256h.779c70.695 0 128-57.308 128-128C256 57.308 198.695 0 128.079 0zm-39.49 196.956l-15.612-6.449c2.775 5.752 7.629 10.456 14.032 13.122 13.873 5.772 29.836-.84 35.612-14.711 2.8-6.724 2.83-14.107.079-20.854-2.745-6.747-7.927-12.006-14.593-14.785-6.601-2.749-13.595-2.594-19.655-.316l16.132 6.671c10.229 4.257 15.071 16.078 10.807 26.35-4.251 10.264-16.101 15.122-26.303 10.894l.501-.922zm82.654-99.618c0-18.093-14.729-32.823-32.828-32.823-18.096 0-32.826 14.73-32.826 32.823 0 18.096 14.73 32.826 32.826 32.826 18.099 0 32.828-14.73 32.828-32.826zm-57.381.059c0-13.574 11.04-24.601 24.612-24.601 13.578 0 24.609 11.027 24.609 24.601 0 13.578-11.031 24.609-24.609 24.609-13.572 0-24.612-11.031-24.612-24.609z" fill="white"/>
  </g>
</svg>
